<svg id="Layer_1" data-name="Layer 1" xmlns="http://www.w3.org/2000/svg" viewBox="0 0 500 500"><defs><style>.cls-1{fill:#5fc090;}.cls-2{fill:#e6f3e9;}</style></defs><title>cmsLogo</title><rect class="cls-1" width="500" height="500"/><path class="cls-2" d="M83.4,218.93H44.13a68.8,68.8,0,0,1,21.42-44.54A68.75,68.75,0,0,1,174.69,195.3l-35.36,16.15a30,30,0,0,0-26.86-16.66A29.38,29.38,0,0,0,83.4,218.93Zm55.93,18.53,35.36,16.32A68.68,68.68,0,0,1,44.13,230H83.4a29.37,29.37,0,0,0,29.07,24.13A30,30,0,0,0,139.33,237.46Z" transform="translate(0 0)"/><path class="cls-2" d="M188.46,212V156.37L311.37,291.18H260.88Zm0,16.83,57.29,62.39H188.46Zm84.15,2.89,68.68-75.31V291.18H326.84Z" transform="translate(0 0)"/><path class="cls-2" d="M396.2,155.86v79.21a39.61,39.61,0,0,1-38.93-39.6v-.17A39.47,39.47,0,0,1,396.2,155.86Zm-38.93,98.25H396.2v38.94A39.72,39.72,0,0,1,357.27,254.11ZM446,194.62H407.42V155.86A39.5,39.5,0,0,1,446,194.62Zm9.86,58.81a39.55,39.55,0,0,1-39.61,39.62h-8.84V213.83h8.84A39.76,39.76,0,0,1,455.87,253.43Z" transform="translate(0 0)"/><path class="cls-2" d="M56.73,313.91h-6v5.59h6.72v1.68H48.7v-15.5h8.37v1.67H50.7v4.9h6Z" transform="translate(0 0)"/><path class="cls-2" d="M76.07,314.37c-.12-2.16-.25-4.76-.23-6.69h-.07c-.53,1.81-1.17,3.75-2,5.88l-2.74,7.52H69.56l-2.5-7.38c-.74-2.18-1.36-4.18-1.8-6h0c0,1.93-.17,4.53-.3,6.85l-.42,6.65H62.59l1.09-15.5h2.55l2.64,7.49c.65,1.91,1.18,3.61,1.57,5.22h.07c.39-1.56.94-3.26,1.63-5.22l2.76-7.49h2.55l1,15.5h-2Z" transform="translate(0 0)"/><path class="cls-2" d="M84.49,305.86a23.31,23.31,0,0,1,3.84-.3,6.36,6.36,0,0,1,4.35,1.29A4.17,4.17,0,0,1,94,310.09a4.56,4.56,0,0,1-1.19,3.31,6.41,6.41,0,0,1-4.74,1.7,7.19,7.19,0,0,1-1.61-.13v6.21h-2Zm2,7.47a6.52,6.52,0,0,0,1.66.16c2.41,0,3.88-1.17,3.88-3.31s-1.45-3-3.65-3a8.57,8.57,0,0,0-1.89.16Z" transform="translate(0 0)"/><path class="cls-2" d="M99.72,305.68h2V319.5h6.62v1.68H99.72Z" transform="translate(0 0)"/><path class="cls-2" d="M125.91,313.26c0,5.34-3.24,8.17-7.2,8.17s-7-3.18-7-7.87c0-4.92,3-8.14,7.19-8.14S125.91,308.67,125.91,313.26Zm-12,.26c0,3.31,1.8,6.28,5,6.28s5-2.93,5-6.44c0-3.08-1.6-6.3-4.94-6.3S113.88,310.11,113.88,313.52Z" transform="translate(0 0)"/><path class="cls-2" d="M134.31,321.18V314.6l-4.9-8.92h2.28l2.18,4.27c.6,1.18,1.06,2.12,1.54,3.2h.05c.43-1,1-2,1.56-3.2l2.23-4.27h2.28l-5.2,8.9v6.6Z" transform="translate(0 0)"/><path class="cls-2" d="M154.16,313.91h-6v5.59h6.72v1.68h-8.72v-15.5h8.37v1.67h-6.37v4.9h6Z" transform="translate(0 0)"/><path class="cls-2" d="M168.46,313.91h-6v5.59h6.71v1.68h-8.71v-15.5h8.37v1.67h-6.37v4.9h6Z" transform="translate(0 0)"/><path class="cls-2" d="M195.67,314.37c-.12-2.16-.25-4.76-.23-6.69h-.07c-.53,1.81-1.17,3.75-2,5.88l-2.73,7.52h-1.52l-2.51-7.38c-.73-2.18-1.35-4.18-1.79-6h-.05c0,1.93-.16,4.53-.29,6.85l-.42,6.65h-1.91l1.08-15.5h2.56l2.64,7.49c.64,1.91,1.17,3.61,1.56,5.22h.07c.39-1.56,1-3.26,1.64-5.22l2.76-7.49h2.55l1,15.5h-1.95Z" transform="translate(0 0)"/><path class="cls-2" d="M206.37,316.3l-1.61,4.88h-2.07l5.26-15.5h2.42l5.29,15.5h-2.14l-1.66-4.88Zm5.08-1.56-1.52-4.46c-.35-1-.57-1.94-.8-2.83h0c-.23.92-.48,1.86-.78,2.8l-1.52,4.49Z" transform="translate(0 0)"/><path class="cls-2" d="M220.93,321.18v-15.5h2.18l5,7.84a44.39,44.39,0,0,1,2.78,5l0,0c-.19-2.07-.23-3.95-.23-6.37v-6.48h1.88v15.5h-2l-4.92-7.87a48.4,48.4,0,0,1-2.9-5.17l-.07,0c.11,1.95.16,3.82.16,6.39v6.63Z" transform="translate(0 0)"/><path class="cls-2" d="M241.56,316.3,240,321.18h-2.07l5.26-15.5h2.42l5.29,15.5h-2.14l-1.66-4.88Zm5.08-1.56-1.52-4.46c-.35-1-.57-1.94-.8-2.83h0c-.23.92-.48,1.86-.78,2.8L242,314.74Z" transform="translate(0 0)"/><path class="cls-2" d="M267.57,320.48a14.22,14.22,0,0,1-4.76.86,7.28,7.28,0,0,1-8-7.82c0-4.62,3.2-8,8.39-8a9.62,9.62,0,0,1,3.87.72l-.49,1.63a8,8,0,0,0-3.42-.67c-3.77,0-6.23,2.35-6.23,6.24s2.36,6.25,6,6.25a6.52,6.52,0,0,0,2.67-.41v-4.63h-3.15V313h5.11Z" transform="translate(0 0)"/><path class="cls-2" d="M281.64,313.91h-6v5.59h6.71v1.68h-8.71v-15.5H282v1.67h-6.37v4.9h6Z" transform="translate(0 0)"/><path class="cls-2" d="M301,314.37c-.12-2.16-.26-4.76-.24-6.69h-.06c-.53,1.81-1.18,3.75-2,5.88L296,321.08h-1.51L292,313.7c-.73-2.18-1.36-4.18-1.79-6h-.05c0,1.93-.16,4.53-.3,6.85l-.41,6.65h-1.91l1.08-15.5h2.55l2.65,7.49c.64,1.91,1.17,3.61,1.56,5.22h.07c.39-1.56.94-3.26,1.63-5.22l2.76-7.49h2.55l1,15.5h-1.95Z" transform="translate(0 0)"/><path class="cls-2" d="M317.43,313.91h-6v5.59h6.71v1.68h-8.71v-15.5h8.37v1.67h-6.37v4.9h6Z" transform="translate(0 0)"/><path class="cls-2" d="M323.71,321.18v-15.5h2.19l5,7.84a44.58,44.58,0,0,1,2.79,5l0,0c-.18-2.07-.23-3.95-.23-6.37v-6.48h1.89v15.5h-2l-4.92-7.87a50.21,50.21,0,0,1-2.9-5.17l-.06,0c.11,1.95.16,3.82.16,6.39v6.63Z" transform="translate(0 0)"/><path class="cls-2" d="M344.78,307.38h-4.72v-1.7h11.48v1.7H346.8v13.8h-2Z" transform="translate(0 0)"/><path class="cls-2" d="M363.85,318.74a7.06,7.06,0,0,0,3.58,1c2.05,0,3.25-1.08,3.25-2.65s-.83-2.27-2.93-3.08c-2.52-.89-4.09-2.2-4.09-4.39,0-2.41,2-4.21,5-4.21a7.06,7.06,0,0,1,3.43.76l-.55,1.63a6.26,6.26,0,0,0-2.94-.73c-2.12,0-2.92,1.26-2.92,2.32,0,1.45.94,2.16,3.08,3,2.62,1,4,2.28,4,4.55s-1.77,4.46-5.43,4.46a8,8,0,0,1-4-1Z" transform="translate(0 0)"/><path class="cls-2" d="M381.9,321.18V314.6l-4.9-8.92h2.28l2.18,4.27c.6,1.18,1.06,2.12,1.54,3.2h.05c.44-1,1-2,1.56-3.2l2.23-4.27h2.28l-5.2,8.9v6.6Z" transform="translate(0 0)"/><path class="cls-2" d="M393.31,318.74a7.1,7.1,0,0,0,3.59,1c2,0,3.24-1.08,3.24-2.65s-.83-2.27-2.92-3.08c-2.53-.89-4.1-2.2-4.1-4.39,0-2.41,2-4.21,5-4.21a7,7,0,0,1,3.42.76l-.55,1.63a6.23,6.23,0,0,0-2.94-.73c-2.12,0-2.92,1.26-2.92,2.32,0,1.45.94,2.16,3.08,3,2.62,1,3.95,2.28,3.95,4.55s-1.77,4.46-5.42,4.46a8,8,0,0,1-4-1Z" transform="translate(0 0)"/><path class="cls-2" d="M410.86,307.38h-4.72v-1.7h11.48v1.7h-4.74v13.8h-2Z" transform="translate(0 0)"/><path class="cls-2" d="M430.36,313.91h-6v5.59h6.72v1.68h-8.72v-15.5h8.37v1.67h-6.37v4.9h6Z" transform="translate(0 0)"/><path class="cls-2" d="M449.7,314.37c-.11-2.16-.25-4.76-.23-6.69h-.07c-.53,1.81-1.17,3.75-1.95,5.88l-2.74,7.52h-1.52l-2.5-7.38c-.74-2.18-1.36-4.18-1.8-6h0c-.05,1.93-.16,4.53-.3,6.85l-.42,6.65h-1.9l1.08-15.5h2.55l2.64,7.49c.65,1.91,1.18,3.61,1.57,5.22h.07c.39-1.56.94-3.26,1.63-5.22l2.76-7.49h2.55l1,15.5h-2Z" transform="translate(0 0)"/><path class="cls-2" d="M56.52,341.6h-.65a.24.24,0,0,1-.18-.07.44.44,0,0,1-.12-.15L54.21,338H48.53l-1.35,3.36a.35.35,0,0,1-.12.15.32.32,0,0,1-.19.07h-.64L51,330h.83Zm-7.73-4.2H54l-2.36-5.84c0-.09-.07-.2-.11-.32s-.08-.24-.12-.37a3.25,3.25,0,0,1-.11.37l-.11.33Z" transform="translate(0 0)"/><path class="cls-2" d="M66.34,330.07a.47.47,0,0,1,.14.12l7.48,10a4,4,0,0,1,0-.48V330h.74V341.6h-.4a.34.34,0,0,1-.3-.17l-7.52-10a4,4,0,0,1,0,.47v9.73h-.73V330h.41A.48.48,0,0,1,66.34,330.07Z" transform="translate(0 0)"/><path class="cls-2" d="M90.53,335.81a6.88,6.88,0,0,1-.4,2.43A5.41,5.41,0,0,1,89,340.11a5,5,0,0,1-1.74,1.19,6.16,6.16,0,0,1-4.47,0,5,5,0,0,1-1.74-1.19,5.26,5.26,0,0,1-1.13-1.87,7.38,7.38,0,0,1,0-4.85,5.22,5.22,0,0,1,1.13-1.86,5,5,0,0,1,1.74-1.2,6.16,6.16,0,0,1,4.47,0,4.84,4.84,0,0,1,1.74,1.2,5.37,5.37,0,0,1,1.13,1.86A6.94,6.94,0,0,1,90.53,335.81Zm-.87,0a6.68,6.68,0,0,0-.33-2.17,4.67,4.67,0,0,0-1-1.63,4,4,0,0,0-1.46-1,5.06,5.06,0,0,0-1.9-.35,5,5,0,0,0-1.89.35,4.12,4.12,0,0,0-1.47,1,4.53,4.53,0,0,0-1,1.63,7.13,7.13,0,0,0,0,4.35,4.61,4.61,0,0,0,1,1.63,4,4,0,0,0,1.47,1A5,5,0,0,0,85,341a5.06,5.06,0,0,0,1.9-.35,3.86,3.86,0,0,0,1.46-1,4.77,4.77,0,0,0,1-1.63A6.66,6.66,0,0,0,89.66,335.81Z" transform="translate(0 0)"/><path class="cls-2" d="M105.1,335.81a6.73,6.73,0,0,1-.4,2.41,5.1,5.1,0,0,1-1.13,1.82,4.75,4.75,0,0,1-1.74,1.16,6.16,6.16,0,0,1-2.24.4H95.37V330h4.22a6,6,0,0,1,2.24.4,4.85,4.85,0,0,1,1.74,1.15,5.19,5.19,0,0,1,1.13,1.82A6.79,6.79,0,0,1,105.1,335.81Zm-.87,0a6.52,6.52,0,0,0-.33-2.15,4.52,4.52,0,0,0-.94-1.6,4,4,0,0,0-1.47-1,5.06,5.06,0,0,0-1.9-.34H96.21v10.2h3.38a5.26,5.26,0,0,0,1.9-.34,4.17,4.17,0,0,0,1.47-1,4.61,4.61,0,0,0,.94-1.6A6.55,6.55,0,0,0,104.23,335.81Z" transform="translate(0 0)"/><path class="cls-2" d="M116.84,330v.69h-6.09v4.67h5.06v.68h-5.06v4.82h6.09v.7h-6.93V330Z" transform="translate(0 0)"/><path class="cls-2" d="M120.83,341a.77.77,0,0,1,.06-.3.76.76,0,0,1,.39-.4.73.73,0,0,1,.3-.06.82.82,0,0,1,.54.22,1,1,0,0,1,.16.24.77.77,0,0,1,.06.3.65.65,0,0,1-.06.29,1,1,0,0,1-.16.24.82.82,0,0,1-.54.22.75.75,0,0,1-.75-.75Z" transform="translate(0 0)"/><path class="cls-2" d="M131,337.74a5.63,5.63,0,0,1-.24,1.72,3.66,3.66,0,0,1-.68,1.25,2.9,2.9,0,0,1-1.09.76,3.89,3.89,0,0,1-1.44.26,4.74,4.74,0,0,1-.75-.06,5.69,5.69,0,0,1-.77-.18l0-.23a1.79,1.79,0,0,1,0-.23.31.31,0,0,1,.06-.13.18.18,0,0,1,.16-.06l.17,0,.25.06a2.21,2.21,0,0,0,.32.07l.43,0a3,3,0,0,0,1.12-.19,2.13,2.13,0,0,0,.85-.6,2.75,2.75,0,0,0,.54-1,5.22,5.22,0,0,0,.18-1.45V330H131Z" transform="translate(0 0)"/><path class="cls-2" d="M142.17,331.44a.22.22,0,0,1-.21.14.51.51,0,0,1-.28-.15,3.3,3.3,0,0,0-.45-.33,3,3,0,0,0-.72-.34,3,3,0,0,0-1.06-.16,3.15,3.15,0,0,0-1.11.18,2.35,2.35,0,0,0-.8.49,2.05,2.05,0,0,0-.49.72,2.1,2.1,0,0,0-.17.86,1.73,1.73,0,0,0,.25,1,2.05,2.05,0,0,0,.66.65,4.65,4.65,0,0,0,.92.46l1.07.36c.37.12.72.25,1.07.4a3.71,3.71,0,0,1,.93.54,2.69,2.69,0,0,1,.66.8,2.65,2.65,0,0,1,.25,1.19,3.87,3.87,0,0,1-.25,1.37,3.24,3.24,0,0,1-.73,1.12,3.35,3.35,0,0,1-1.16.74,4,4,0,0,1-1.56.28,4.41,4.41,0,0,1-2-.41,4.84,4.84,0,0,1-1.45-1.1l.23-.36a.28.28,0,0,1,.23-.13.39.39,0,0,1,.19.1l.28.24a2.79,2.79,0,0,0,.39.31,3,3,0,0,0,.53.31,3.1,3.1,0,0,0,.69.24,3.54,3.54,0,0,0,.9.1,3.36,3.36,0,0,0,1.22-.21,2.6,2.6,0,0,0,.91-.56,2.4,2.4,0,0,0,.57-.86,2.86,2.86,0,0,0,.2-1.06,1.81,1.81,0,0,0-.25-1,2.08,2.08,0,0,0-.66-.66,4,4,0,0,0-.93-.45l-1.06-.35a11.25,11.25,0,0,1-1.07-.39A3.54,3.54,0,0,1,137,335a2.54,2.54,0,0,1-.66-.82,2.82,2.82,0,0,1-.25-1.24,3.06,3.06,0,0,1,.22-1.12,2.82,2.82,0,0,1,.65-.95,2.94,2.94,0,0,1,1.05-.66,3.76,3.76,0,0,1,1.43-.25,4.28,4.28,0,0,1,1.61.28,4.14,4.14,0,0,1,1.31.88Z" transform="translate(0 0)"/><path class="cls-2" d="M161.21,341.6h-.65a.23.23,0,0,1-.18-.07.44.44,0,0,1-.12-.15L158.9,338h-5.68l-1.35,3.36a.35.35,0,0,1-.12.15.32.32,0,0,1-.19.07h-.64L155.65,330h.83Zm-7.74-4.2h5.18l-2.36-5.84c0-.09-.07-.2-.11-.32s-.08-.24-.12-.37a3.25,3.25,0,0,1-.11.37q-.06.18-.12.33Z" transform="translate(0 0)"/><path class="cls-2" d="M165.75,330.07a.47.47,0,0,1,.14.12l7.48,10a3.93,3.93,0,0,1,0-.48V330h.73V341.6h-.4a.34.34,0,0,1-.3-.17l-7.52-10a4,4,0,0,1,0,.47v9.73h-.73V330h.41A.42.42,0,0,1,165.75,330.07Z" transform="translate(0 0)"/><path class="cls-2" d="M189.36,335.81a6.73,6.73,0,0,1-.4,2.41,5.1,5.1,0,0,1-1.13,1.82,4.8,4.8,0,0,1-1.73,1.16,6.25,6.25,0,0,1-2.25.4h-4.22V330h4.22a6,6,0,0,1,2.25.4,4.9,4.9,0,0,1,1.73,1.15,5.19,5.19,0,0,1,1.13,1.82A6.79,6.79,0,0,1,189.36,335.81Zm-.86,0a6.51,6.51,0,0,0-.34-2.15,4.52,4.52,0,0,0-.94-1.6,4,4,0,0,0-1.47-1,5,5,0,0,0-1.9-.34h-3.37v10.2h3.37a5.22,5.22,0,0,0,1.9-.34,4.17,4.17,0,0,0,1.47-1,4.61,4.61,0,0,0,.94-1.6A6.55,6.55,0,0,0,188.5,335.81Z" transform="translate(0 0)"/><path class="cls-2" d="M205.21,338.72l.11-.26a1.34,1.34,0,0,1,.12-.24l4.54-8a.27.27,0,0,1,.13-.13l.18,0h.58V341.6h-.74v-9.85a3.4,3.4,0,0,1,0-.45l-4.55,8.07a.36.36,0,0,1-.33.22h-.13a.36.36,0,0,1-.33-.22l-4.67-8.08a3.67,3.67,0,0,1,0,.46v9.85h-.73V330H200l.18,0a.29.29,0,0,1,.14.13l4.66,8A3.61,3.61,0,0,1,205.21,338.72Z" transform="translate(0 0)"/><path class="cls-2" d="M220,336.83v4.77h-.84v-4.77L214.91,330h.73a.35.35,0,0,1,.18,0,.64.64,0,0,1,.13.15l3.31,5.31c.08.13.14.25.2.37l.15.35a3.65,3.65,0,0,1,.14-.35c.06-.12.12-.24.2-.37l3.3-5.31a.33.33,0,0,1,.12-.14.29.29,0,0,1,.19-.06h.73Z" transform="translate(0 0)"/><path class="cls-2" d="M233.93,331.44a.22.22,0,0,1-.21.14.51.51,0,0,1-.28-.15,3.3,3.3,0,0,0-.45-.33,3,3,0,0,0-.72-.34,3,3,0,0,0-1.06-.16,3.15,3.15,0,0,0-1.11.18,2.35,2.35,0,0,0-.8.49,2.05,2.05,0,0,0-.49.72,2.1,2.1,0,0,0-.17.86,1.73,1.73,0,0,0,.25,1,2.05,2.05,0,0,0,.66.65,4.65,4.65,0,0,0,.92.46l1.07.36c.37.12.72.25,1.07.4a3.54,3.54,0,0,1,.93.54,2.69,2.69,0,0,1,.66.8,2.65,2.65,0,0,1,.25,1.19,3.87,3.87,0,0,1-.25,1.37,3.24,3.24,0,0,1-.73,1.12,3.35,3.35,0,0,1-1.16.74,4,4,0,0,1-1.56.28,4.41,4.41,0,0,1-2-.41,4.84,4.84,0,0,1-1.45-1.1l.23-.36a.28.28,0,0,1,.23-.13.39.39,0,0,1,.19.1l.28.24a3.54,3.54,0,0,0,.39.31,3,3,0,0,0,.53.31,3.1,3.1,0,0,0,.69.24,3.54,3.54,0,0,0,.9.1,3.36,3.36,0,0,0,1.22-.21,2.6,2.6,0,0,0,.91-.56,2.4,2.4,0,0,0,.57-.86,2.86,2.86,0,0,0,.2-1.06,1.81,1.81,0,0,0-.25-1,2.08,2.08,0,0,0-.66-.66,4,4,0,0,0-.93-.45l-1.06-.35a11.25,11.25,0,0,1-1.07-.39,3.54,3.54,0,0,1-.93-.54,2.54,2.54,0,0,1-.66-.82,2.82,2.82,0,0,1-.25-1.24,3.06,3.06,0,0,1,.22-1.12,2.82,2.82,0,0,1,.65-.95,2.94,2.94,0,0,1,1.05-.66,3.76,3.76,0,0,1,1.43-.25,4.28,4.28,0,0,1,1.61.28,4.14,4.14,0,0,1,1.31.88Z" transform="translate(0 0)"/><path class="cls-2" d="M249.3,335.81a7.88,7.88,0,0,1-.17,1.65,6.28,6.28,0,0,1-.51,1.42,5,5,0,0,1-.79,1.16,5.27,5.27,0,0,1-1.06.89l3,3.21h-.71a.88.88,0,0,1-.29,0,.51.51,0,0,1-.23-.16l-2.47-2.66a5.4,5.4,0,0,1-1.08.32,5.91,5.91,0,0,1-1.21.12,5.75,5.75,0,0,1-2.23-.42,5,5,0,0,1-1.74-1.19,5.41,5.41,0,0,1-1.13-1.87,7.38,7.38,0,0,1,0-4.85,5.37,5.37,0,0,1,1.13-1.86,5,5,0,0,1,1.74-1.2,5.75,5.75,0,0,1,2.23-.42,5.85,5.85,0,0,1,2.25.42,4.89,4.89,0,0,1,1.73,1.2,5.22,5.22,0,0,1,1.13,1.86A6.94,6.94,0,0,1,249.3,335.81Zm-.86,0a6.68,6.68,0,0,0-.34-2.17,4.66,4.66,0,0,0-.94-1.63,4.12,4.12,0,0,0-1.47-1,5,5,0,0,0-1.9-.35,5,5,0,0,0-1.88.35,4.12,4.12,0,0,0-1.47,1,4.69,4.69,0,0,0-1,1.63,7.13,7.13,0,0,0,0,4.35,4.79,4.79,0,0,0,1,1.63,4,4,0,0,0,1.47,1,5,5,0,0,0,1.88.35,5,5,0,0,0,1.9-.35,4,4,0,0,0,1.47-1,4.75,4.75,0,0,0,.94-1.63A6.65,6.65,0,0,0,248.44,335.81Z" transform="translate(0 0)"/><path class="cls-2" d="M255,340.89h5.48v.71h-6.31V330H255Z" transform="translate(0 0)"/><path class="cls-2" d="M279.63,335.81a7,7,0,0,1-.4,2.41A5.25,5.25,0,0,1,278.1,340a4.75,4.75,0,0,1-1.74,1.16,6.17,6.17,0,0,1-2.25.4H269.9V330h4.21a6,6,0,0,1,2.25.4,4.85,4.85,0,0,1,1.74,1.15,5.34,5.34,0,0,1,1.13,1.82A7,7,0,0,1,279.63,335.81Zm-.87,0a6.52,6.52,0,0,0-.33-2.15,4.54,4.54,0,0,0-.95-1.6,3.93,3.93,0,0,0-1.46-1,5.07,5.07,0,0,0-1.91-.34h-3.37v10.2h3.37a5.28,5.28,0,0,0,1.91-.34,4,4,0,0,0,1.46-1,4.63,4.63,0,0,0,.95-1.6A6.55,6.55,0,0,0,278.76,335.81Z" transform="translate(0 0)"/><path class="cls-2" d="M292.89,341.6h-.64a.25.25,0,0,1-.19-.07.44.44,0,0,1-.12-.15L290.58,338H284.9l-1.35,3.36a.29.29,0,0,1-.12.15.32.32,0,0,1-.19.07h-.64L287.33,330h.83Zm-7.73-4.2h5.18L288,331.56c0-.09-.08-.2-.12-.32a3.25,3.25,0,0,1-.11-.37c0,.13-.08.26-.12.37s-.07.23-.11.33Z" transform="translate(0 0)"/><path class="cls-2" d="M303.45,330v.71h-4.06V341.6h-.83V330.75h-4.08V330Z" transform="translate(0 0)"/><path class="cls-2" d="M315.33,341.6h-.64a.25.25,0,0,1-.19-.07.33.33,0,0,1-.11-.15L313,338h-5.67L306,341.38a.33.33,0,0,1-.11.15.35.35,0,0,1-.2.07H305L309.77,330h.84Zm-7.73-4.2h5.18l-2.36-5.84c0-.09-.08-.2-.12-.32l-.11-.37c0,.13-.08.26-.12.37a2.55,2.55,0,0,1-.11.33Z" transform="translate(0 0)"/><path class="cls-2" d="M319.29,341.6V330h3.32a6.61,6.61,0,0,1,1.71.19,3.44,3.44,0,0,1,1.2.58,2.32,2.32,0,0,1,.71.93,3.22,3.22,0,0,1,.23,1.24,2.41,2.41,0,0,1-.16.88,2.86,2.86,0,0,1-.46.79,3,3,0,0,1-.74.62,3.43,3.43,0,0,1-1,.4,3.78,3.78,0,0,1,2.1.91,2.45,2.45,0,0,1,.73,1.85,3.13,3.13,0,0,1-.26,1.33,2.75,2.75,0,0,1-.76,1,3.42,3.42,0,0,1-1.22.62,6,6,0,0,1-1.65.22Zm.83-6.15h2.51a4,4,0,0,0,1.37-.21,2.56,2.56,0,0,0,.93-.54,2,2,0,0,0,.53-.76,2.18,2.18,0,0,0,.17-.87,2.15,2.15,0,0,0-.73-1.77,3.62,3.62,0,0,0-2.29-.6h-2.49Zm0,.61v4.87H323a3.45,3.45,0,0,0,2.3-.66,2.54,2.54,0,0,0,.57-2.84,2.13,2.13,0,0,0-.6-.74,2.87,2.87,0,0,0-1-.47,4.72,4.72,0,0,0-1.3-.16Z" transform="translate(0 0)"/><path class="cls-2" d="M340.58,341.6h-.64a.25.25,0,0,1-.19-.07.44.44,0,0,1-.12-.15L338.27,338h-5.68l-1.35,3.36a.35.35,0,0,1-.12.15.32.32,0,0,1-.19.07h-.64L335,330h.83Zm-7.73-4.2H338l-2.36-5.84-.11-.32c0-.11-.08-.24-.12-.37a3.25,3.25,0,0,1-.11.37l-.11.33Z" transform="translate(0 0)"/><path class="cls-2" d="M350.13,331.44a.22.22,0,0,1-.21.14.46.46,0,0,1-.28-.15,3.3,3.3,0,0,0-.45-.33,3.22,3.22,0,0,0-.72-.34,3,3,0,0,0-1.06-.16,3.15,3.15,0,0,0-1.11.18,2.5,2.5,0,0,0-.81.49,2.19,2.19,0,0,0-.49.72,2.27,2.27,0,0,0-.16.86,1.81,1.81,0,0,0,.24,1,2.27,2.27,0,0,0,.66.65,4.74,4.74,0,0,0,.93.46l1.07.36c.36.12.72.25,1.07.4a3.65,3.65,0,0,1,.92.54,2.42,2.42,0,0,1,.66.8,2.52,2.52,0,0,1,.25,1.19,3.66,3.66,0,0,1-.25,1.37,3.08,3.08,0,0,1-.72,1.12,3.45,3.45,0,0,1-1.16.74,4.07,4.07,0,0,1-1.57.28,4.44,4.44,0,0,1-2-.41,4.68,4.68,0,0,1-1.44-1.1l.23-.36a.27.27,0,0,1,.23-.13.37.37,0,0,1,.18.1l.28.24a4.84,4.84,0,0,0,.39.31,3.06,3.06,0,0,0,.54.31,3.1,3.1,0,0,0,.69.24,3.46,3.46,0,0,0,.89.1,3.37,3.37,0,0,0,1.23-.21,2.69,2.69,0,0,0,.91-.56,2.4,2.4,0,0,0,.57-.86,2.86,2.86,0,0,0,.2-1.06,1.9,1.9,0,0,0-.25-1,2.08,2.08,0,0,0-.66-.66,4,4,0,0,0-.93-.45c-.35-.12-.7-.24-1.07-.35s-.72-.24-1.06-.39A3.54,3.54,0,0,1,345,335a2.42,2.42,0,0,1-.66-.82,2.69,2.69,0,0,1-.25-1.24,2.87,2.87,0,0,1,.22-1.12,2.69,2.69,0,0,1,.65-.95,2.94,2.94,0,0,1,1.05-.66,3.71,3.71,0,0,1,1.42-.25,4.37,4.37,0,0,1,1.62.28,4,4,0,0,1,1.3.88Z" transform="translate(0 0)"/><path class="cls-2" d="M362.12,330v.69H356v4.67h5.07v.68H356v4.82h6.09v.7h-6.93V330Z" transform="translate(0 0)"/><path class="cls-2" d="M373.32,336.94v4.66h-.83V330h3a4.61,4.61,0,0,1,3.07.89,3.16,3.16,0,0,1,1,2.54,3.4,3.4,0,0,1-.28,1.4,3.11,3.11,0,0,1-.81,1.09,3.85,3.85,0,0,1-1.29.72,5.4,5.4,0,0,1-1.72.26Zm0-.67h2.15a4.15,4.15,0,0,0,1.37-.21,3,3,0,0,0,1-.59,2.56,2.56,0,0,0,.64-.89,2.72,2.72,0,0,0,.23-1.11,2.6,2.6,0,0,0-.82-2.05,3.64,3.64,0,0,0-2.45-.72h-2.15Z" transform="translate(0 0)"/><path class="cls-2" d="M385.14,336.37v5.23h-.83V330h2.95a4.81,4.81,0,0,1,3,.77,2.71,2.71,0,0,1,1,2.27,3,3,0,0,1-.23,1.21,3,3,0,0,1-.65,1,3.45,3.45,0,0,1-1,.67,4.31,4.31,0,0,1-1.36.35,1.21,1.21,0,0,1,.35.33l4,5h-.73a.48.48,0,0,1-.22-.05.6.6,0,0,1-.19-.17l-3.7-4.68a.87.87,0,0,0-.29-.26,1.29,1.29,0,0,0-.5-.07Zm0-.62h2a4.56,4.56,0,0,0,1.38-.19,3,3,0,0,0,1-.52,2.35,2.35,0,0,0,.64-.83,2.67,2.67,0,0,0,.22-1.08,2.1,2.1,0,0,0-.81-1.83,3.92,3.92,0,0,0-2.35-.6h-2.12Z" transform="translate(0 0)"/><path class="cls-2" d="M406.45,335.81a6.88,6.88,0,0,1-.4,2.43,5.41,5.41,0,0,1-1.13,1.87,5,5,0,0,1-1.74,1.19,6.16,6.16,0,0,1-4.47,0,5,5,0,0,1-1.74-1.19,5.41,5.41,0,0,1-1.13-1.87,7.38,7.38,0,0,1,0-4.85,5.37,5.37,0,0,1,1.13-1.86,5,5,0,0,1,1.74-1.2,6.16,6.16,0,0,1,4.47,0,4.84,4.84,0,0,1,1.74,1.2,5.37,5.37,0,0,1,1.13,1.86A6.94,6.94,0,0,1,406.45,335.81Zm-.87,0a6.68,6.68,0,0,0-.33-2.17,4.66,4.66,0,0,0-.94-1.63,4.12,4.12,0,0,0-1.47-1,5.06,5.06,0,0,0-1.9-.35,5,5,0,0,0-1.89.35,4.12,4.12,0,0,0-1.47,1,4.53,4.53,0,0,0-.95,1.63,7.13,7.13,0,0,0,0,4.35,4.61,4.61,0,0,0,.95,1.63,4,4,0,0,0,1.47,1,5,5,0,0,0,1.89.35,5.06,5.06,0,0,0,1.9-.35,4,4,0,0,0,1.47-1,4.75,4.75,0,0,0,.94-1.63A6.66,6.66,0,0,0,405.58,335.81Z" transform="translate(0 0)"/><path class="cls-2" d="M415.28,337.74a5.63,5.63,0,0,1-.24,1.72,3.52,3.52,0,0,1-.69,1.25,3,3,0,0,1-1.08.76,3.9,3.9,0,0,1-1.45.26,4.71,4.71,0,0,1-.74-.06,6.2,6.2,0,0,1-.78-.18l0-.23a1.79,1.79,0,0,0,0-.23.52.52,0,0,1,.06-.13.2.2,0,0,1,.16-.06l.18,0,.24.06.33.07.43,0a3.06,3.06,0,0,0,1.12-.19,2.2,2.2,0,0,0,.85-.6,2.74,2.74,0,0,0,.53-1,4.86,4.86,0,0,0,.19-1.45V330h.84Z" transform="translate(0 0)"/><path class="cls-2" d="M427.76,330v.69h-6.09v4.67h5.07v.68h-5.07v4.82h6.09v.7h-6.93V330Z" transform="translate(0 0)"/><path class="cls-2" d="M441,339.65a.16.16,0,0,1,.13.06l.33.35a5.07,5.07,0,0,1-.78.69,5.28,5.28,0,0,1-.93.52,5.06,5.06,0,0,1-1.1.34,6.74,6.74,0,0,1-1.32.12,5.6,5.6,0,0,1-2.2-.42,4.86,4.86,0,0,1-1.72-1.2,5.39,5.39,0,0,1-1.11-1.86,7,7,0,0,1-.4-2.44,6.65,6.65,0,0,1,.41-2.4,5.38,5.38,0,0,1,1.16-1.86,5.06,5.06,0,0,1,1.79-1.21,5.89,5.89,0,0,1,2.3-.43,6.79,6.79,0,0,1,1.15.09,4.76,4.76,0,0,1,1,.27,4.36,4.36,0,0,1,.86.44,6,6,0,0,1,.78.6l-.25.37a.22.22,0,0,1-.21.1.33.33,0,0,1-.18-.09l-.29-.21c-.12-.08-.26-.18-.43-.28a3,3,0,0,0-.59-.27,4.7,4.7,0,0,0-.79-.22,6.21,6.21,0,0,0-1-.08,5.08,5.08,0,0,0-1.94.36,4.34,4.34,0,0,0-1.52,1,4.85,4.85,0,0,0-1,1.63,6.1,6.1,0,0,0-.36,2.15,6.21,6.21,0,0,0,.36,2.19,4.56,4.56,0,0,0,1,1.63,4,4,0,0,0,1.46,1,4.68,4.68,0,0,0,1.84.36,7.18,7.18,0,0,0,1.1-.08,4.53,4.53,0,0,0,.9-.25,4.23,4.23,0,0,0,.76-.4,6.64,6.64,0,0,0,.69-.55l.08-.06Z" transform="translate(0 0)"/><path class="cls-2" d="M453.77,330v.71h-4.06V341.6h-.83V330.75H444.8V330Z" transform="translate(0 0)"/></svg>