<?xml version="1.0" encoding="utf-8"?>
<!-- Generator: Adobe Illustrator 19.1.0, SVG Export Plug-In . SVG Version: 6.00 Build 0)  -->
<svg version="1.1" id="Layer_1" xmlns="http://www.w3.org/2000/svg" xmlns:xlink="http://www.w3.org/1999/xlink" x="0px" y="0px"
	 viewBox="0 0 241.3 135.4" style="enable-background:new 0 0 241.3 135.4;" xml:space="preserve">
<style type="text/css">
	.st0{fill:#FFFFFF;}
</style>
<g>
	<g>
		<path class="st0" d="M231.4,0H9.9C4.5,0,0,4.5,0,9.9v115.5c0,5.5,4.5,9.9,9.9,9.9h221.4c5.5,0,9.9-4.4,9.9-9.9V9.9
			C241.3,4.5,236.8,0,231.4,0z M9.9,129.4c-2.2,0-3.9-1.8-3.9-3.9V11.2l109.9,118.3H9.9z M10.8,6h219.7L120.6,124.3L10.8,6z
			 M235.3,125.5c0,2.2-1.8,3.9-3.9,3.9H125.4L235.3,11.1V125.5z"/>
	</g>
	<g>
		<g>
			<polygon class="st0" points="143.1,72.4 121,90.2 98.9,72.4 98.9,80.7 121,98.6 143.1,80.8 			"/>
		</g>
		<g>
			<g>
				<polygon class="st0" points="126.6,24.1 126.6,79.7 120.9,84.3 115.2,79.7 115.2,24.1 120.9,19.5 				"/>
				<polygon class="st0" points="99.1,37.2 110.5,28 110.5,75.8 99.1,66.6 				"/>
				<polygon class="st0" points="143,37.2 131.6,28 131.6,75.8 143,66.6 				"/>
			</g>
		</g>
	</g>
</g>
</svg>
