<svg id="Layer_1" data-name="Layer 1" xmlns="http://www.w3.org/2000/svg" viewBox="0 0 100 100"><defs><style>.cls-1{fill:#010101;}</style></defs><title>email-icon</title><path d="M50,0A49.81,49.81,0,0,0,14.81,14.49,50,50,0,0,1,89.23,19,49.86,49.86,0,0,0,50,0Zm0,100a51,51,0,0,1-10-1A50,50,0,0,0,88.56,81.82,50,50,0,0,1,50,100ZM29.4,95.57c-1.1-.5-2.18-1-3.24-1.61C27.22,94.54,28.3,95.07,29.4,95.57Z"/><path d="M99.84,46.08c-.07-.86-.15-1.71-.26-2.56,0-.42-.11-.84-.18-1.25L99.19,41c-.08-.5-.18-1-.29-1.48-.07-.33-.15-.65-.22-1-.19-.83-.41-1.65-.65-2.46-.1-.38-.22-.76-.34-1.13-.36-1.18-.77-2.34-1.23-3.47-.15-.38-.31-.76-.47-1.13s-.4-.93-.61-1.38c-.13-.28-.26-.56-.4-.83a48.15,48.15,0,0,0-3-5.25q-.66-1-1.35-2c-.45-.65-.94-1.29-1.44-1.91a50,50,0,0,0-74.42-4.53l-.84.85-.82.87-.8.9-.78.91c-.24.28-.47.56-.69.85l-.24.29c-.24.3-.48.62-.71.93q-1.44,1.92-2.7,4l-.61,1c-.2.35-.4.7-.59,1.05-.58,1.07-1.12,2.15-1.62,3.26q-1,2.22-1.79,4.54-.58,1.74-1,3.54c-.2.8-.39,1.6-.56,2.42-.08.4-.16.81-.23,1.22C.63,42,.51,42.8.4,43.63S.21,45.31.15,46.15C.05,47.42,0,48.71,0,50c0,.43,0,.86,0,1.29,0,.85.06,1.7.13,2.54a48.82,48.82,0,0,0,.63,5c.15.82.31,1.63.5,2.43.28,1.21.6,2.41,1,3.58.24.78.5,1.56.78,2.32A50.12,50.12,0,0,0,26.16,94c1.06.57,2.14,1.11,3.24,1.61h0c.73.33,1.47.64,2.22.94s1.54.59,2.32.85,1.54.49,2.32.72c.41.12.81.23,1.22.33.79.2,1.59.38,2.39.55h0a51,51,0,0,0,10,1,50,50,0,0,0,50-47.41c0-.85.07-1.71.07-2.57C100,48.68,100,47.38,99.84,46.08ZM50,93.74A43.74,43.74,0,1,1,93.74,50,43.74,43.74,0,0,1,50,93.74Z"/><path class="cls-1" d="M78.15,37.45a.19.19,0,0,0,0-.07,1.89,1.89,0,0,0-.11-.25l0,0a2.2,2.2,0,0,0-.2-.23l-.06,0a1.14,1.14,0,0,0-.23-.15l0,0h0a1.32,1.32,0,0,0-.3-.09h-8.9V24.75A1.24,1.24,0,0,0,67,23.51H33a1.24,1.24,0,0,0-1.23,1.24V36.53h-8.9a1.32,1.32,0,0,0-.3.09h0l0,0a1.14,1.14,0,0,0-.23.15l-.06,0a2.2,2.2,0,0,0-.2.23l0,0a1.89,1.89,0,0,0-.11.25.19.19,0,0,0,0,.07,1.13,1.13,0,0,0-.05.32V75.25A1.25,1.25,0,0,0,23,76.49H77a1.25,1.25,0,0,0,1.24-1.24V37.77A1.13,1.13,0,0,0,78.15,37.45ZM73.62,39l-5.36,4.6V39ZM34.21,26H65.79V45.74L50,59.31,34.21,45.74ZM31.74,43.61,26.38,39h5.36Zm44,30.4H24.28V40.47L48.1,61l-6.28,5.39a1.24,1.24,0,1,0,1.62,1.88L75.72,40.47V74Z"/><polygon class="cls-1" points="56.24 44.8 50.01 49.84 43.76 44.77 43.76 47.15 50.01 52.2 56.24 47.15 56.24 44.8"/><polygon class="cls-1" points="51.58 31.12 51.58 46.87 49.97 48.17 48.36 46.84 48.36 31.12 49.97 29.82 51.58 31.12"/><polygon class="cls-1" points="43.8 34.84 47.02 32.24 47.02 45.74 43.8 43.15 43.8 34.84"/><polygon class="cls-1" points="56.22 34.84 52.98 32.24 52.98 45.74 56.22 43.15 56.22 34.84"/></svg>