<svg id="Layer_1" data-name="Layer 1" xmlns="http://www.w3.org/2000/svg" viewBox="0 0 100 99.96"><title>github-icon</title><path d="M99.84,46.06c-.07-.86-.15-1.71-.26-2.56,0-.42-.11-.84-.18-1.25L99.19,41c-.08-.5-.18-1-.29-1.48-.07-.33-.15-.65-.22-1-.19-.83-.41-1.65-.65-2.46-.1-.38-.22-.76-.34-1.13-.36-1.18-.77-2.34-1.23-3.47-.15-.38-.31-.76-.47-1.13s-.4-.93-.61-1.38c-.13-.28-.26-.56-.4-.83a48.15,48.15,0,0,0-3-5.25q-.66-1-1.35-2c-.45-.65-.94-1.29-1.44-1.91a50,50,0,0,0-74.42-4.53l-.84.85-.82.87-.8.9-.78.91c-.24.28-.47.56-.69.85l-.24.29c-.24.3-.48.62-.71.93q-1.44,1.92-2.7,4l-.61,1c-.2.35-.4.7-.59,1-.58,1.07-1.12,2.15-1.62,3.26q-1,2.22-1.79,4.54-.58,1.74-1,3.54c-.2.8-.39,1.6-.56,2.42-.08.4-.16.81-.23,1.22C.63,42,.51,42.78.4,43.61S.21,45.29.15,46.13C.05,47.4,0,48.69,0,50c0,.43,0,.86,0,1.29,0,.85.06,1.7.13,2.54a48.82,48.82,0,0,0,.63,5c.15.82.31,1.63.5,2.43.28,1.21.6,2.41,1,3.58.24.78.5,1.56.78,2.32A50.12,50.12,0,0,0,26.16,93.94c1.06.57,2.14,1.11,3.24,1.61h0c.73.33,1.47.64,2.22.94s1.54.59,2.32.85,1.54.49,2.32.72c.41.12.81.23,1.22.33.79.2,1.59.38,2.39.55h0a51,51,0,0,0,10,1,50,50,0,0,0,50-47.41c0-.85.07-1.71.07-2.57C100,48.66,100,47.36,99.84,46.06ZM50,93.72A43.74,43.74,0,1,1,93.74,50,43.74,43.74,0,0,1,50,93.72Z"/><path d="M64.63,91.23a7.3,7.3,0,0,1-1.31.38,2.21,2.21,0,0,1-2.79-2.3c0-2.18,0-4.36,0-6.76s.19-5-.2-7.58a9.17,9.17,0,0,0-2.12-5c-.56-.62-.14-.76.39-.84A41.17,41.17,0,0,0,63.85,68c4.3-1.19,8-3.31,10.52-7.11a20,20,0,0,0,3-8.49A23.22,23.22,0,0,0,77,42.64a16.12,16.12,0,0,0-3.15-5.9,1.47,1.47,0,0,1-.33-1.51,16.47,16.47,0,0,0-.42-9.7,1.33,1.33,0,0,0-1.51-1.05,13.31,13.31,0,0,0-4.35,1,30,30,0,0,0-5.43,2.87,2.16,2.16,0,0,1-1.92.33,38.93,38.93,0,0,0-20.27,0,2.11,2.11,0,0,1-1.74-.34,31.61,31.61,0,0,0-6.07-3.11,12.15,12.15,0,0,0-3.9-.83,1.25,1.25,0,0,0-1.4.94,16.55,16.55,0,0,0-.49,9.7,1.48,1.48,0,0,1-.23,1.53c-3.21,3.77-4.2,8.21-3.88,13a28.75,28.75,0,0,0,1.25,7,16.28,16.28,0,0,0,9.39,10.25,32.11,32.11,0,0,0,8,2.1c1.27.19,1.28.21.5,1.25a10.66,10.66,0,0,0-1.73,4,1.63,1.63,0,0,1-1.17,1.3c-4.73,1.57-9.09.75-11.84-3.89a9,9,0,0,0-4.88-4.15,5.79,5.79,0,0,0-2.89-.22c-.89.15-1.06.69-.45,1.36a5.27,5.27,0,0,0,1.08,1,11.18,11.18,0,0,1,4.69,5.83c1.83,4.92,6.16,7,11,6.87a20.26,20.26,0,0,0,3.21-.28c.62-.11.94.14.94.77,0,2.22.06,4.43,0,6.64a2.18,2.18,0,0,1-2.54,2.14v6.59a57,57,0,0,0,7.09,1.45,3.8,3.8,0,0,1,.75.13h0A69.58,69.58,0,0,0,57,99.52a51.52,51.52,0,0,0,10.3-2.63l-2-5.94Z"/></svg>