<svg id="Layer_1" data-name="Layer 1" xmlns="http://www.w3.org/2000/svg" viewBox="0 0 500 500"><defs><style>.cls-1{fill:#00c2f3;}.cls-2,.cls-3,.cls-4{fill:#f1fafe;}.cls-3{font-size:23px;letter-spacing:0.13em;}.cls-3,.cls-4{font-family:OpenSans-ExtraBold, Open Sans ExtraBold;font-weight:800;}.cls-4{font-size:16.69px;letter-spacing:0.13em;}</style></defs><title>noteTaker</title><rect class="cls-1" width="500" height="500"/><path class="cls-2" d="M331.39,139.72v223h-159v-223h159m0-10h-159a10,10,0,0,0-10,10v223a10,10,0,0,0,10,10h159a10,10,0,0,0,10-10v-223a10,10,0,0,0-10-10Z" transform="translate(0 0)"/><rect class="cls-2" x="193.36" y="173.57" width="114.22" height="12" rx="5"/><rect class="cls-2" x="193.36" y="205.57" width="114.22" height="12" rx="5"/><rect class="cls-2" x="193.36" y="237.57" width="114.22" height="12" rx="5"/><rect class="cls-2" x="193.36" y="269.57" width="114.22" height="12" rx="5"/><rect class="cls-2" x="193.36" y="301.57" width="114.22" height="12" rx="5"/><text class="cls-3" transform="translate(153.78 372.09) rotate(-90)">LIVE NOTE TAKER</text><text class="cls-4" transform="translate(351.63 129.72) rotate(90)">AN EXPRESS.JS PROJECT</text></svg>