<?xml version="1.0" encoding="utf-8"?>
<!-- Generator: Adobe Illustrator 19.1.0, SVG Export Plug-In . SVG Version: 6.00 Build 0)  -->
<svg version="1.1" id="Layer_1" xmlns="http://www.w3.org/2000/svg" xmlns:xlink="http://www.w3.org/1999/xlink" x="0px" y="0px"
	 viewBox="0 0 135.4 241.3" style="enable-background:new 0 0 135.4 241.3;" xml:space="preserve">
<style type="text/css">
	.st0{fill:#FFFFFF;}
	.st1{fill:none;stroke:#FFFFFF;stroke-width:3;stroke-miterlimit:10;}
</style>
<g>
	<g>
		<path class="st0" d="M114.1,241.3H21.4C9.6,241.3,0,231.7,0,219.9V21.4C0,9.6,9.6,0,21.4,0h92.7c11.8,0,21.4,9.6,21.4,21.4v198.6
			C135.4,231.7,125.8,241.3,114.1,241.3z M21.4,6C12.9,6,6,12.9,6,21.4v198.6c0,8.5,6.9,15.4,15.4,15.4h92.7
			c8.5,0,15.4-6.9,15.4-15.4V21.4c0-8.5-6.9-15.4-15.4-15.4H21.4z"/>
	</g>
	<g>
		<path class="st0" d="M67.7,232.3c-6.7,0-12.2-5.5-12.2-12.2S61,208,67.7,208c6.7,0,12.2,5.5,12.2,12.2S74.4,232.3,67.7,232.3z
			 M67.7,211c-5.1,0-9.2,4.1-9.2,9.2s4.1,9.2,9.2,9.2c5.1,0,9.2-4.1,9.2-9.2S72.8,211,67.7,211z"/>
	</g>
	<g>
		<rect x="16.2" y="38.1" class="st1" width="103.1" height="165"/>
	</g>
	<g>
		<path class="st0" d="M78.7,24.5h-22c-0.9,0-1.7-0.8-1.7-1.7v0c0-0.9,0.8-1.7,1.7-1.7h22c0.9,0,1.7,0.8,1.7,1.7v0
			C80.4,23.7,79.6,24.5,78.7,24.5z"/>
	</g>
	<g>
		<circle class="st0" cx="46.4" cy="22.8" r="2"/>
	</g>
</g>
</svg>
