<svg id="Layer_1" data-name="Layer 1" xmlns="http://www.w3.org/2000/svg" viewBox="0 0 1000 1000"><defs><style>.cls-1{fill:#ca3a3c;stroke:#231f20;stroke-miterlimit:10;}.cls-2{fill:#e9aea1;}</style></defs><title>PLACEHOLDERS</title><rect class="cls-1" width="1000" height="1000"/><path class="cls-2" d="M339.67,423.45q0,11.37-5.73,17.45T317.36,447H314v25.88H300.76V401.47h18.11Q339.68,401.47,339.67,423.45Zm-25.63,12h2.54c3.25,0,5.68-.9,7.27-2.69s2.4-4.72,2.4-8.79c0-3.74-.74-6.52-2.2-8.32s-3.73-2.71-6.79-2.71H314Z"/><path class="cls-2" d="M361.94,445.08v27.78H348.66V401.47H366q11,0,16.29,5.23t5.25,16q0,13.53-9.14,18.9l13.73,31.3H378l-11.28-27.78Zm0-11.43h3.42q4.68,0,6.74-2.66c1.36-1.77,2-4.42,2-7.93s-.73-6.25-2.18-7.79-3.68-2.32-6.71-2.32h-3.32Z"/><path class="cls-2" d="M447.78,437.07q0,17.73-6.64,27.24t-19,9.53q-12.4,0-19-9.5T396.46,437q0-17.73,6.64-27.17t19.14-9.45q12.36,0,18.95,9.5T447.78,437.07Zm-37.74,0q0,12.21,3.07,18.6t9,6.4q12,0,12-25t-11.92-25q-6,0-9.13,6.37T410,437.07Z"/><path class="cls-2" d="M452.57,493.47a22.35,22.35,0,0,1-8.21-1.23V480.67a20.53,20.53,0,0,0,6,1q4,0,5.93-2.59c1.25-1.72,1.88-4.3,1.88-7.71V401.47h13.28v69.19a29.1,29.1,0,0,1-2.37,12.21,17.69,17.69,0,0,1-6.69,7.89A18.17,18.17,0,0,1,452.57,493.47Z"/><path class="cls-2" d="M516.24,472.86H484.06V401.47h32.18V413h-18.9v17h17.53v11.52H497.34v19.78h18.9Z"/><path class="cls-2" d="M550.32,412.07q-5.72,0-9,6.69t-3.3,18.6q0,24.81,12.94,24.81a23.65,23.65,0,0,0,11.87-3.62v11.82q-5.22,3.47-13.38,3.47-12.06,0-18.53-9.6t-6.47-27q0-17.37,6.67-27.1a21.25,21.25,0,0,1,18.53-9.71,26.18,26.18,0,0,1,7.49,1.07,30.1,30.1,0,0,1,7.69,3.76l-4.39,10.79a39.29,39.29,0,0,0-4.69-2.76A12,12,0,0,0,550.32,412.07Z"/><path class="cls-2" d="M594.85,472.86H581.62V413.14H568V401.47h40.57v11.67H594.85Z"/><path class="cls-2" d="M676.44,472.86H638.16V463l12.7-18A129.13,129.13,0,0,0,658,434a33.1,33.1,0,0,0,2.89-6.89,25.26,25.26,0,0,0,.92-6.81q0-4.09-1.83-6.15a6.08,6.08,0,0,0-4.76-2.05,9,9,0,0,0-4.83,1.37,27,27,0,0,0-5.47,4.93l-7.42-7.81q5.12-5.82,9.52-8a21.27,21.27,0,0,1,9.52-2.15q8.64,0,13.5,5.08t4.86,14.11a33,33,0,0,1-.88,7.76,36.63,36.63,0,0,1-2.66,7.35,62.87,62.87,0,0,1-4.47,7.67q-2.68,4-13.87,18.23V461h23.39Z"/><path class="cls-2" d="M277.64,523.45q0,11.37-5.74,17.45T255.32,547H252v25.88H238.72V501.47h18.12Q277.65,501.47,277.64,523.45Zm-25.64,12h2.54c3.26,0,5.68-.9,7.28-2.69s2.39-4.72,2.39-8.79c0-3.74-.73-6.52-2.2-8.32s-3.72-2.71-6.78-2.71H252Z"/><path class="cls-2" d="M286.62,572.86V501.47H299.9v59.77h18.41v11.62Z"/><path class="cls-2" d="M360.6,572.86l-4.1-18H337.89l-4.1,18H320.51l17.68-71.68h18l17.73,71.68ZM354,543.08l-3.81-16.61q-.34-1.51-1.54-7.59t-1.44-8.13q-.63,4.2-1.61,9.25t-5.08,23.08Z"/><path class="cls-2" d="M403.91,512.07q-5.71,0-9,6.69t-3.3,18.6q0,24.81,12.94,24.81a23.65,23.65,0,0,0,11.87-3.62v11.82c-3.49,2.31-7.94,3.47-13.38,3.47q-12.06,0-18.53-9.6t-6.47-27q0-17.37,6.66-27.09a21.25,21.25,0,0,1,18.53-9.72,26.2,26.2,0,0,1,7.5,1.07,30.1,30.1,0,0,1,7.69,3.76L414,516.07a39.29,39.29,0,0,0-4.69-2.76A12,12,0,0,0,403.91,512.07Z"/><path class="cls-2" d="M458.69,572.86H426.52V501.47h32.17V513H439.8v17h17.53v11.52H439.8v19.78h18.89Z"/><path class="cls-2" d="M513.19,572.86H499.9v-31.3H482.38v31.3H469.09V501.47h13.29v28.37H499.9V501.47h13.29Z"/><path class="cls-2" d="M574.9,537.07q0,17.73-6.64,27.25t-19,9.52q-12.4,0-19-9.5T523.59,537q0-17.72,6.64-27.17t19.14-9.45q12.35,0,18.94,9.5T574.9,537.07Zm-37.74,0q0,12.21,3.08,18.6t9,6.4q12,0,12-25t-11.91-25q-6.06,0-9.13,6.37T537.16,537.07Z"/><path class="cls-2" d="M585.3,572.86V501.47h13.29v59.77H617v11.62Z"/><path class="cls-2" d="M670.9,536.48q0,17.68-7.2,27T643,572.86H625.49V501.47h19.09q12.45,0,19.39,9.21T670.9,536.48Zm-13.62.39q0-23.93-13.19-23.92h-5.32v48.29h4.3a11.52,11.52,0,0,0,10.74-6.08Q657.28,549.09,657.28,536.87Z"/><path class="cls-2" d="M713.48,572.86H681.3V501.47h32.18V513h-18.9v17h17.53v11.52H694.58v19.78h18.9Z"/><path class="cls-2" d="M737.16,545.08v27.78H723.88V501.47h17.38q11,0,16.29,5.23t5.24,16q0,13.51-9.13,18.89l13.72,31.3h-14.2L741.9,545.08Zm0-11.43h3.42q4.68,0,6.74-2.66c1.36-1.77,2-4.42,2-7.93s-.73-6.25-2.18-7.79-3.68-2.32-6.71-2.32h-3.32Z"/></svg>