<svg id="Layer_1" data-name="Layer 1" xmlns="http://www.w3.org/2000/svg" viewBox="0 0 1137.14 200.15"><defs><style>.cls-1{fill:#202121;}</style></defs><title>project-header-style-marks</title><polygon class="cls-1" points="811.94 40.3 811.94 0 783 0 783 40.3 797.47 51.92 811.94 40.3"/><polygon class="cls-1" points="324.46 40.3 324.46 0 353.4 0 353.4 40.3 338.94 51.92 324.46 40.3"/><polygon class="cls-1" points="128.25 156.67 128.25 200.15 113.78 200.15 113.78 168.28 128.25 156.67"/><polygon class="cls-1" points="156.69 138.67 156.69 200.15 142.22 200.15 142.22 150.28 156.69 138.67"/><polygon class="cls-1" points="185.13 120.67 185.13 200.15 170.67 200.15 170.67 132.28 185.13 120.67"/><polygon class="cls-1" points="213.58 102.67 213.58 200.15 199.11 200.15 199.11 114.29 213.58 102.67"/><polygon class="cls-1" points="85.33 156.67 85.33 200.15 99.8 200.15 99.8 168.28 85.33 156.67"/><polygon class="cls-1" points="56.89 138.67 56.89 200.15 71.36 200.15 71.36 150.28 56.89 138.67"/><polygon class="cls-1" points="28.44 120.67 28.44 200.15 42.91 200.15 42.91 132.28 28.44 120.67"/><polygon class="cls-1" points="0 102.67 0 200.15 14.47 200.15 14.47 114.29 0 102.67"/><polygon class="cls-1" points="1051.8 156.67 1051.8 200.15 1037.33 200.15 1037.33 168.28 1051.8 156.67"/><polygon class="cls-1" points="1080.25 138.67 1080.25 200.15 1065.78 200.15 1065.78 150.28 1080.25 138.67"/><polygon class="cls-1" points="1108.69 120.67 1108.69 200.15 1094.22 200.15 1094.22 132.28 1108.69 120.67"/><polygon class="cls-1" points="1137.13 102.67 1137.13 200.15 1122.67 200.15 1122.67 114.29 1137.13 102.67"/><polygon class="cls-1" points="1008.89 156.67 1008.89 200.15 1023.36 200.15 1023.36 168.28 1008.89 156.67"/><polygon class="cls-1" points="980.44 138.67 980.44 200.15 994.91 200.15 994.91 150.28 980.44 138.67"/><polygon class="cls-1" points="952 120.67 952 200.15 966.47 200.15 966.47 132.28 952 120.67"/><polygon class="cls-1" points="923.56 102.67 923.56 200.15 938.02 200.15 938.02 114.29 923.56 102.67"/></svg>