<svg id="Layer_1" data-name="Layer 1" xmlns="http://www.w3.org/2000/svg" viewBox="0 0 100 100"><defs><style>.cls-1{fill:#231f20;}</style></defs><title>resume-icon</title><path d="M69.6,25.07H63.27v-.25a3,3,0,0,0-3-3H39.72a3,3,0,0,0-3,3v.25H30.4a2.74,2.74,0,0,0-2.73,2.74V75.43a2.73,2.73,0,0,0,2.73,2.73H69.6a2.73,2.73,0,0,0,2.73-2.73V27.81A2.74,2.74,0,0,0,69.6,25.07Zm-30.14-.25a.26.26,0,0,1,.26-.25H60.28a.25.25,0,0,1,.25.25v3.24a.25.25,0,0,1-.25.25H39.72a.26.26,0,0,1-.26-.25ZM69.6,75.43H30.4V27.81h6.33v.25a3,3,0,0,0,3,3H60.28a3,3,0,0,0,3-3v-.25H69.6Z"/><rect class="cls-1" x="38.1" y="36.72" width="23.8" height="3.24" rx="1.49"/><rect class="cls-1" x="38.1" y="44.17" width="23.8" height="3.24" rx="1.49"/><rect class="cls-1" x="38.1" y="51.62" width="23.8" height="3.24" rx="1.49"/><rect class="cls-1" x="38.1" y="59.07" width="23.8" height="3.24" rx="1.49"/><rect class="cls-1" x="43.2" y="66.51" width="13.6" height="3.24" rx="1.49"/><path d="M50,0A49.81,49.81,0,0,0,14.81,14.49,50,50,0,0,1,89.23,19,49.86,49.86,0,0,0,50,0Zm0,100a51,51,0,0,1-10-1A50,50,0,0,0,88.56,81.82,50,50,0,0,1,50,100ZM29.4,95.57c-1.1-.5-2.18-1-3.24-1.61C27.22,94.54,28.3,95.07,29.4,95.57Z"/><path d="M99.84,46.08c-.07-.86-.15-1.71-.26-2.56,0-.42-.11-.84-.18-1.25L99.19,41c-.08-.5-.18-1-.29-1.48-.07-.33-.15-.65-.22-1-.19-.83-.41-1.65-.65-2.46-.1-.38-.22-.76-.34-1.13-.36-1.18-.77-2.34-1.23-3.47-.15-.38-.31-.76-.47-1.13s-.4-.93-.61-1.38c-.13-.28-.26-.56-.4-.83a48.15,48.15,0,0,0-3-5.25q-.66-1-1.35-2c-.45-.65-.94-1.29-1.44-1.91a50,50,0,0,0-74.42-4.53l-.84.85-.82.87-.8.9-.78.91c-.24.28-.47.56-.69.85l-.24.29c-.24.3-.48.62-.71.93q-1.44,1.92-2.7,4l-.61,1c-.2.35-.4.7-.59,1.05-.58,1.07-1.12,2.15-1.62,3.26q-1,2.22-1.79,4.54-.58,1.74-1,3.54c-.2.8-.39,1.6-.56,2.42-.08.4-.16.81-.23,1.22C.63,42,.51,42.8.4,43.63S.21,45.31.15,46.15C.05,47.42,0,48.71,0,50c0,.43,0,.86,0,1.29,0,.85.06,1.7.13,2.54a48.82,48.82,0,0,0,.63,5c.15.82.31,1.63.5,2.43.28,1.21.6,2.41,1,3.58.24.78.5,1.56.78,2.32A50.12,50.12,0,0,0,26.16,94c1.06.57,2.14,1.11,3.24,1.61h0c.73.33,1.47.64,2.22.94s1.54.59,2.32.85,1.54.49,2.32.72c.41.12.81.23,1.22.33.79.2,1.59.38,2.39.55h0a51,51,0,0,0,10,1,50,50,0,0,0,50-47.41c0-.85.07-1.71.07-2.57C100,48.68,100,47.38,99.84,46.08ZM50,93.74A43.74,43.74,0,1,1,93.74,50,43.74,43.74,0,0,1,50,93.74Z"/></svg>